<?xml version="1.0" standalone="no"?>
<!DOCTYPE svg PUBLIC "-//W3C//DTD SVG 20010904//EN"
 "http://www.w3.org/TR/2001/REC-SVG-20010904/DTD/svg10.dtd">
<svg version="1.0" xmlns="http://www.w3.org/2000/svg"
 width="653.000000pt" height="208.000000pt" viewBox="0 0 653.000000 208.000000"
 preserveAspectRatio="xMidYMid meet">

<g transform="translate(0.000000,208.000000) scale(0.100000,-0.100000)"
fill="#000000" stroke="none">
<path d="M505 1905 l-480 -172 2 -34 c4 -49 143 -1233 146 -1235 12 -11 805
-447 813 -447 11 0 792 428 808 443 11 11 156 1262 147 1272 -5 6 -398 149
-821 298 l-135 47 -480 -172z m483 -530 l3 -130 70 133 70 132 63 0 63 0 147
-400 c81 -220 150 -409 153 -420 5 -19 1 -20 -58 -20 l-64 0 -41 113 -41 112
-66 3 -65 3 -46 -65 c-51 -72 -83 -99 -166 -142 -52 -27 -62 -29 -175 -29
-111 0 -124 2 -177 28 -61 30 -144 112 -171 169 -40 84 -47 145 -47 395 l0
243 60 0 60 0 0 -202 c0 -209 14 -339 44 -396 24 -46 89 -98 146 -117 131 -43
275 26 356 171 l36 64 85 0 c77 0 84 2 78 18 -3 9 -29 77 -56 150 -27 74 -52
140 -56 147 -5 9 -43 -54 -108 -181 l-100 -194 -62 0 -63 0 0 275 0 276 63 -3
62 -3 3 -130z"/>
<path d="M3750 1255 c0 -14 5 -25 10 -25 15 0 13 -423 -1 -437 -21 -21 -2 -43
36 -43 42 0 56 22 31 49 -13 14 -16 42 -16 156 0 142 8 160 29 70 26 -106 43
-155 55 -155 7 0 24 45 42 113 l29 112 3 -139 c2 -86 -1 -143 -8 -150 -5 -5
-10 -20 -10 -33 0 -22 3 -23 80 -23 78 0 80 1 80 24 0 13 -7 26 -15 30 -13 4
-15 37 -15 209 0 170 3 207 15 217 8 7 15 21 15 31 0 17 -8 19 -63 19 l-62 0
-24 -92 c-13 -51 -27 -97 -31 -101 -6 -7 -18 27 -50 151 l-11 42 -59 0 c-57 0
-60 -1 -60 -25z"/>
<path d="M4133 1264 c-4 -10 1 -22 10 -29 15 -11 17 -38 17 -223 0 -177 -2
-211 -15 -216 -8 -3 -15 -15 -15 -26 0 -18 6 -20 84 -20 65 0 85 3 90 15 3 8
-1 21 -9 29 -12 12 -15 54 -15 222 0 181 2 208 17 219 9 7 14 19 10 29 -9 24
-165 24 -174 0z"/>
<path d="M4330 1255 c0 -14 5 -25 10 -25 6 0 10 -78 10 -215 0 -137 -4 -215
-10 -215 -5 0 -10 -11 -10 -25 0 -24 2 -25 74 -25 l73 0 -5 116 -5 116 29 -4
29 -3 5 -100 c3 -55 9 -106 13 -112 12 -20 106 -17 114 3 3 8 1 20 -6 27 -6 6
-11 40 -11 75 0 73 -10 96 -52 122 l-30 18 31 16 c43 23 64 68 58 124 -11 98
-67 132 -214 132 l-103 0 0 -25z m188 -27 c7 -7 12 -44 12 -98 0 -89 -8 -110
-42 -110 -16 0 -18 11 -18 110 0 99 2 110 18 110 10 0 23 -5 30 -12z"/>
<path d="M4934 1252 c-7 -17 -25 -35 -47 -46 -39 -18 -47 -33 -22 -42 13 -5
15 -37 15 -198 0 -136 4 -196 12 -204 7 -7 34 -12 60 -12 41 0 48 3 48 20 0
11 -4 20 -10 20 -6 0 -10 68 -10 184 0 154 2 185 15 190 19 7 20 36 1 36 -10
0 -16 13 -18 37 -4 47 -29 56 -44 15z"/>
<path d="M2260 1181 c0 -11 5 -23 10 -26 6 -4 10 -75 10 -180 0 -105 -4 -176
-10 -180 -5 -3 -10 -15 -10 -26 0 -17 7 -19 63 -19 l62 0 0 192 0 193 25 0 25
0 6 -190 c3 -104 6 -191 7 -192 1 -2 23 -3 50 -3 l47 0 -3 192 c-4 210 -11
241 -58 252 -17 5 -40 0 -65 -12 -38 -19 -39 -19 -39 -1 0 16 -8 19 -60 19
-53 0 -60 -2 -60 -19z"/>
<path d="M2670 1182 c-106 -58 -121 -306 -25 -391 46 -40 79 -48 121 -27 58
27 97 118 58 133 -20 7 -34 -13 -34 -49 0 -33 -24 -58 -55 -58 -34 0 -45 27
-45 114 l0 76 75 0 75 0 0 38 c0 56 -18 110 -48 143 -35 38 -77 45 -122 21z
m74 -38 c3 -9 6 -40 6 -70 0 -53 0 -54 -30 -54 l-30 0 0 63 c0 35 3 67 7 70
12 13 41 7 47 -9z"/>
<path d="M2888 1028 c4 -207 9 -235 44 -261 26 -20 29 -20 70 -4 37 15 43 15
51 2 5 -10 24 -15 62 -15 48 0 55 3 55 19 0 11 -4 23 -10 26 -6 4 -10 83 -10
206 l0 199 -52 0 -53 0 3 -195 4 -195 -25 0 c-34 0 -37 16 -37 218 l0 172 -52
0 -53 0 3 -172z"/>
<path d="M3210 1186 c0 -8 5 -18 10 -21 14 -9 13 -368 -1 -382 -21 -21 2 -33
67 -33 57 0 64 2 64 19 0 11 -4 23 -10 26 -6 4 -10 65 -11 148 -1 78 -4 167
-7 197 l-7 55 -52 3 c-42 2 -53 0 -53 -12z"/>
<path d="M3356 1178 c-24 -37 -31 -78 -13 -78 8 0 20 -6 27 -14 30 -37 62 31
38 80 -17 37 -34 40 -52 12z"/>
<path d="M3520 1183 c-24 -12 -43 -34 -60 -68 -21 -43 -25 -63 -25 -145 0 -79
4 -102 23 -137 45 -86 124 -104 187 -43 89 86 86 314 -6 382 -37 27 -79 31
-119 11z m78 -188 c3 -187 0 -208 -31 -203 -22 3 -22 6 -25 173 -1 93 0 175 3
183 3 7 15 12 27 10 23 -3 23 -6 26 -163z"/>
<path d="M5130 1182 c-106 -58 -121 -306 -25 -391 46 -40 79 -48 121 -27 58
27 97 118 58 133 -20 7 -34 -13 -34 -49 0 -33 -24 -58 -55 -58 -34 0 -45 27
-45 114 l0 76 75 0 75 0 0 38 c0 56 -18 110 -48 143 -35 38 -77 45 -122 21z
m74 -38 c3 -9 6 -40 6 -70 0 -53 0 -54 -30 -54 l-30 0 0 63 c0 35 3 67 7 70
12 13 41 7 47 -9z"/>
<path d="M5423 1189 c-40 -12 -75 -55 -71 -87 8 -63 88 -48 98 18 4 29 9 35
30 35 22 0 25 -5 28 -43 l3 -42 -63 -29 c-86 -39 -101 -58 -106 -134 -5 -76
15 -132 54 -149 22 -11 32 -9 66 10 40 22 40 22 66 2 25 -20 59 -26 77 -12 6
4 8 73 5 188 -6 205 -12 225 -77 243 -44 13 -66 13 -110 0z m85 -266 c-3 -108
-3 -108 -28 -108 -25 0 -25 2 -28 87 -2 77 0 90 18 108 36 36 41 26 38 -87z"/>
<path d="M5650 1180 c0 -11 5 -20 10 -20 6 0 10 -68 10 -184 0 -113 -4 -187
-10 -191 -5 -3 -10 -13 -10 -21 0 -11 15 -14 64 -14 66 0 86 10 67 34 -8 9
-11 70 -9 182 3 167 3 169 26 172 12 2 23 2 24 0 1 -2 4 -88 7 -193 l6 -190
50 -3 50 -3 -3 196 -4 195 26 0 26 0 0 -176 c0 -102 4 -183 10 -195 9 -15 22
-19 62 -19 48 0 50 1 42 23 -4 12 -10 105 -13 207 -3 102 -9 190 -13 196 -16
24 -59 25 -100 4 l-39 -20 -26 20 c-32 25 -49 25 -91 0 -40 -25 -42 -25 -42 0
0 18 -7 20 -60 20 -53 0 -60 -2 -60 -20z"/>
</g>
</svg>
